<svg width="99" height="32" viewBox="0 0 99 32" fill="none" xmlns="http://www.w3.org/2000/svg">
    <path d="M5.3427 30.7133C8.55948 26.8252 5.67836 21.2587 3.04899 16.8671C1.45459 14.2378 0.503537 12.0839 0.139901 10.2937C-0.363596 7.88811 0.419621 5.28671 2.18186 3.32867C3.38466 2.01399 4.30773 1.48252 5.11892 1.09091C5.90214 0.727273 7.18885 0.307692 8.27976 0.307692C8.30773 0.307692 8.36368 0.307692 8.39165 0.307692C10.6574 0.363636 12.2798 1.14685 13.7063 2.85315C14.1259 3.35664 14.5455 3.88811 14.9371 4.41958C15.4126 3.72028 15.9721 3.1049 16.5595 2.54545C18.2098 1.11888 20.2798 0.167832 22.1819 0.027972C22.3497 0 22.5455 0 22.7133 0C24.6434 0 26.6574 0.867133 28.1119 2.32168C30.6854 4.86713 31.2168 8.97902 29.5665 13.5944C28.4476 16.7273 26.3497 21.0629 22.6574 23.972C22.014 24.4755 21.3707 24.8392 20.6434 25.2308C20.3357 25.3986 19.9721 25.5944 19.6084 25.8182C22.3777 23.4126 23.8322 19.2727 24.9791 15.8322C25.5105 14.1818 26.6574 10.1259 25.2588 6.40559C24.3916 4.05594 22.993 2.96503 20.9231 2.96503C19.9161 2.96503 19.1609 3.27273 18.4616 3.91608C17.3986 4.92308 16.7273 5.81818 16.3637 6.65734C16.7553 7.35664 17.1189 8.08392 17.4266 8.78322C17.9581 10.0699 18.9651 12.4755 17.4266 13.7063C17.2868 13.8182 16.7553 14.1259 15.9441 14.6294C15.3287 14.993 14.6014 15.4126 14.4336 15.5524L14.042 15.8601L13.8182 15.4126C12.9231 13.6503 12.6714 11.4126 13.0909 9.09091C12.8392 8.41958 12.5035 7.60839 11.9721 6.82517C11.1609 5.67832 9.67836 4.33566 8.53151 3.72028C8.16787 3.52448 7.74829 3.41259 7.35668 3.41259C6.51752 3.41259 5.67836 3.86014 4.95109 4.72727C4.30773 5.45455 4.05598 6.82517 4.27976 8.36364C4.44759 9.67832 5.62242 11.9441 6.85319 14.3217C7.91612 16.3636 9.00703 18.4895 9.67836 20.3636C10.4336 22.4895 9.93011 25.0629 9.09095 26.7133C8.58745 27.6923 7.21682 28.979 6.20983 29.9021C5.81822 30.2378 5.5385 30.4895 5.3427 30.7133Z" fill="#EE3E7B"></path>
    <path d="M55.0769 24.4475V3.16083H59.2727V4.33565C59.5245 4.16782 59.7762 3.99999 60.1119 3.83216C61.2587 3.21677 62.4056 3.16083 63.8042 3.16083H64.951V7.1888L64.4755 7.13286C64.4755 7.13286 64.3356 7.10488 64.1119 7.10488C63.4405 7.10488 62.1538 7.21677 60.979 8.05593C60.2797 8.53146 59.972 9.25873 59.7482 9.95803C59.5524 10.6014 59.4405 11.4965 59.4405 12.6433V24.4196H55.0769V24.4475Z" fill="#EE3E7B"></path>
    <path d="M66.5454 24.4475V3.16083H70.7412V4.33565C70.993 4.16782 71.2447 3.99999 71.5804 3.83216C72.7272 3.21677 73.8741 3.16083 75.2727 3.16083H76.2517L78.2937 7.1888L77.5664 7.13286C77.5664 7.13286 77.3147 7.10488 76.923 7.10488C76 7.10488 73.6783 7.1888 72.4475 8.05593C71.7482 8.53146 71.4405 9.25873 71.2167 9.95803C71.0209 10.6014 70.9091 11.4965 70.9091 12.6433V24.4196H66.5454V24.4475Z" fill="#EE3E7B"></path>
    <path d="M42.2098 24.8951C36.0839 24.8951 31.0769 19.8881 31.0769 13.7622C31.0769 7.63636 36.0839 2.62936 42.2098 2.62936C44.8112 2.62936 47.2727 3.52447 49.2587 5.14685V3.16083H53.4545V24.4475H49.2587V22.3776C47.2727 24 44.8112 24.8951 42.2098 24.8951ZM42.2937 6.88111C38.4335 6.88111 35.3287 10.014 35.3287 13.8461C35.3287 17.7063 38.4615 20.8112 42.2937 20.8112C46.1258 20.8112 49.2587 17.6783 49.2587 13.8461C49.2587 10.014 46.1258 6.88111 42.2937 6.88111Z" fill="#EE3E7B"></path>
    <path d="M78.7132 32L85.5104 18.4615L77.874 3.16083H82.7132L87.916 13.6783L93.2027 3.16083H98.2377L83.7761 32H78.7132Z" fill="#EE3E7B"></path>
</svg>
